<svg width="46" height="46" viewBox="0 0 46 46" fill="none" xmlns="http://www.w3.org/2000/svg">
<g id="3d-cube 1">
<g id="Icons">
<path id="Vector" d="M41.6697 10.156L25.0583 0.551229C24.4323 0.190337 23.7224 0.000366211 22.9998 0.000366211C22.2772 0.000366211 21.5673 0.190337 20.9413 0.551229L4.32994 10.156C3.71451 10.5122 3.2032 11.0235 2.84699 11.639C2.49078 12.2544 2.30212 12.9525 2.2998 13.6635V32.3365C2.30212 33.0475 2.49078 33.7456 2.84699 34.361C3.2032 34.9765 3.71451 35.4878 4.32994 35.844L20.9413 45.4488C21.5673 45.8097 22.2772 45.9996 22.9998 45.9996C23.7224 45.9996 24.4323 45.8097 25.0583 45.4488L41.6697 35.844C42.2851 35.4878 42.7964 34.9765 43.1526 34.361C43.5088 33.7456 43.6975 33.0475 43.6998 32.3365V13.6635C43.6975 12.9525 43.5088 12.2544 43.1526 11.639C42.7964 11.0235 42.2851 10.5122 41.6697 10.156ZM5.09814 11.4831L21.7095 1.8791C22.102 1.65327 22.547 1.53443 22.9998 1.53443C23.4527 1.53443 23.8976 1.65327 24.2901 1.8791L40.9015 11.4831C41.191 11.6509 41.4445 11.8742 41.6475 12.1402L31.4462 18.0435L24.2395 13.4366C23.8695 13.2011 23.44 13.076 23.0013 13.076C22.5627 13.076 22.1332 13.2011 21.7632 13.4366L14.5565 18.0435L4.35524 12.1402C4.55732 11.8745 4.80976 11.6512 5.09814 11.4831ZM22.9998 31.5483L15.9848 27.3401L22.5835 23.1173C22.7074 23.0374 22.8517 22.9949 22.999 22.9949C23.1464 22.9949 23.2907 23.0374 23.4146 23.1173L30.0148 27.3409L22.9998 31.5483ZM30.6665 25.9363L24.2395 21.8239C23.8683 21.5894 23.4382 21.4649 22.999 21.4649C22.5599 21.4649 22.1298 21.5894 21.7586 21.8239L15.3331 25.9363V19.3683L22.5866 14.7323C22.7099 14.6533 22.8533 14.6114 22.9998 14.6114C23.1463 14.6114 23.2897 14.6533 23.413 14.7323L30.6665 19.3683V25.9363ZM5.09814 34.5169C4.71509 34.2957 4.39671 33.978 4.17475 33.5954C3.95279 33.2129 3.835 32.7788 3.83314 32.3365V13.6635C3.83314 13.6467 3.83314 13.6298 3.83314 13.6129L13.7998 19.3821V26.5121C13.801 26.9089 13.9044 27.2988 14.0998 27.6441C14.2953 27.9895 14.5764 28.2787 14.9161 28.484L22.2331 32.877V44.3379C22.0512 44.2854 21.8755 44.2128 21.7095 44.1217L5.09814 34.5169ZM42.1665 32.3365C42.1646 32.7788 42.0468 33.2129 41.8249 33.5954C41.6029 33.978 41.2845 34.2957 40.9015 34.5169L24.2901 44.1209C24.1241 44.2121 23.9485 44.2846 23.7665 44.3371V32.877L31.0835 28.487C31.4232 28.2818 31.7043 27.9926 31.8998 27.6472C32.0953 27.3019 32.1986 26.912 32.1998 26.5152V19.3852L42.1665 13.616C42.1665 13.6329 42.1665 13.6497 42.1665 13.6666V32.3365Z" fill="#BAE900"/>
</g>
</g>
</svg>
