<svg width="120" height="54" viewBox="0 0 120 54" fill="none" xmlns="http://www.w3.org/2000/svg">
<path d="M37.7632 42.5105V20.5888H44.2775V42.5105H37.7632ZM41.0448 15.9011C39.9346 15.9011 39.0694 15.6101 38.4489 15.0279C37.8285 14.4152 37.5183 13.6645 37.5183 12.776C37.5183 11.8875 37.8285 11.1521 38.4489 10.57C39.0694 9.95727 39.9346 9.65088 41.0448 9.65088C42.1224 9.65088 42.9713 9.95727 43.5918 10.57C44.2448 11.1521 44.5714 11.8875 44.5714 12.776C44.5714 13.6645 44.2612 14.4152 43.6408 15.0279C43.0203 15.6101 42.1551 15.9011 41.0448 15.9011ZM64.2792 31.2968L72.5567 42.5105H65.0628L62.6139 39.1096L60.2139 35.1113L58.0098 39.0636L55.6588 42.5105H48.2628L56.4424 31.2968L48.7526 20.5888H56.0016L58.4016 24.0356L60.5567 27.85L62.6139 24.0356L64.8179 20.5888H71.92L64.2792 31.2968ZM98.5989 31.3888C98.5989 33.1964 98.2888 34.8203 97.6683 36.2602C97.0479 37.7002 96.1826 38.9258 95.0724 39.9368C93.9948 40.9172 92.7214 41.6832 91.252 42.2347C89.7826 42.7555 88.199 43.016 86.501 43.016C84.803 43.016 83.2193 42.7709 81.7499 42.2807C80.3132 41.7904 79.0561 41.0705 77.9785 40.1207C76.9337 39.1708 76.101 38.0066 75.4806 36.6279C74.8928 35.2185 74.5989 33.6254 74.5989 31.8483C74.5989 29.9794 74.9091 28.3249 75.5295 26.8849C76.15 25.4143 76.9989 24.1887 78.0765 23.2083C79.1867 22.1973 80.4765 21.4313 81.9459 20.9105C83.4153 20.3896 84.9989 20.1292 86.6969 20.1292C88.3949 20.1292 89.9622 20.3742 91.3989 20.8645C92.8683 21.3547 94.1255 22.0747 95.1704 23.0245C96.2479 23.9436 97.0806 25.1079 97.6683 26.5173C98.2888 27.9267 98.5989 29.5505 98.5989 31.3888ZM91.8887 31.6185C91.8887 30.3624 91.7418 29.29 91.4479 28.4015C91.154 27.513 90.7622 26.793 90.2724 26.2415C89.7826 25.69 89.2111 25.2917 88.5581 25.0466C87.9051 24.7709 87.2357 24.633 86.5499 24.633C85.8642 24.633 85.2112 24.7556 84.5908 25.0007C83.9703 25.2152 83.4153 25.5981 82.9255 26.1496C82.4357 26.6704 82.0438 27.3752 81.7499 28.2636C81.4561 29.1521 81.3091 30.2705 81.3091 31.6185C81.3091 32.8134 81.4561 33.8552 81.7499 34.7436C82.0438 35.6016 82.4357 36.3062 82.9255 36.8577C83.4479 37.4092 84.0193 37.8228 84.6397 38.0985C85.2928 38.3743 85.9622 38.5122 86.6479 38.5122C87.3336 38.5122 87.9866 38.405 88.6071 38.1905C89.2275 37.9454 89.7826 37.547 90.2724 36.9956C90.7622 36.4441 91.154 35.7394 91.4479 34.8815C91.7418 33.993 91.8887 32.9053 91.8887 31.6185ZM103.232 42.5105V20.5888H108.277L109.012 24.5411C109.567 23.3769 110.448 22.3504 111.657 21.4619C112.865 20.5735 114.383 20.1292 116.212 20.1292C116.963 20.1292 117.632 20.2058 118.22 20.359C118.808 20.5121 119.297 20.6959 119.689 20.9105L118.612 25.736C118.252 25.5522 117.795 25.399 117.24 25.2764C116.685 25.1233 116.032 25.0466 115.281 25.0466C113.681 25.0466 112.342 25.5522 111.265 26.5632C110.22 27.5436 109.697 29.1675 109.697 31.4347V42.5105H103.232Z" fill="white"/>
<path d="M41.0203 17.234C43.3873 17.234 45.306 15.4336 45.306 13.2127C45.306 10.9918 43.3873 9.19141 41.0203 9.19141C38.6534 9.19141 36.7346 10.9918 36.7346 13.2127C36.7346 15.4336 38.6534 17.234 41.0203 17.234Z" fill="#BAE900"/>
<mask id="mask0_520_14" style="mask-type:luminance" maskUnits="userSpaceOnUse" x="0" y="4" width="32" height="44">
<path d="M31.8367 4.5957H0V47.1063H31.8367V4.5957Z" fill="white"/>
</mask>
<g mask="url(#mask0_520_14)">
<path d="M10.0929 31.6185V47.1066C9.13247 46.8598 8.29427 46.7611 7.56958 46.4348C2.88386 44.3319 0.348913 40.721 0.136454 35.9229C-0.0963772 30.6671 0.0171277 25.392 0.104439 20.1251C0.220854 13.0186 5.0521 6.99768 11.9555 5.14975C20.579 2.84395 29.4848 7.9518 31.4551 16.336C32.9976 22.9025 29.7089 29.4964 23.5738 32.0654C19.6389 33.7104 15.6809 33.3786 11.7256 32.112C11.2716 31.9667 10.835 31.783 10.3868 31.6212C10.2893 31.6093 10.1906 31.6083 10.0929 31.6185ZM9.01896 20.1306C9.10628 23.8101 12.2204 26.7108 15.969 26.6176C19.7175 26.5243 22.8928 23.3275 22.7938 19.6453C22.7006 16.3004 19.3305 13.3393 15.678 13.3914C11.8799 13.4462 8.92874 16.443 9.01896 20.1306Z" fill="#BAE900"/>
</g>
</svg>
