<svg width="79" height="28" viewBox="0 0 79 28" fill="none" xmlns="http://www.w3.org/2000/svg">
<path d="M14.4444 2.8877L0 27.6496H7.30184L18.1068 9.19069L14.4444 2.8877Z" fill="#EE3736"/>
<path d="M22.9063 17.4072L16.9238 27.6497H28.8888L22.9063 17.4072Z" fill="#EE3736"/>
<path d="M16.0136 23.8402C17.5744 23.8402 18.8397 22.5611 18.8397 20.9831C18.8397 19.4051 17.5744 18.126 16.0136 18.126C14.4528 18.126 13.1875 19.4051 13.1875 20.9831C13.1875 22.5611 14.4528 23.8402 16.0136 23.8402Z" fill="#EE3736"/>
<path d="M37.2501 27.65L28.9668 8.86667H34.5668L40.5168 24.3444H37.7557L43.7446 8.86667H49.1501L40.9057 27.65H37.2501ZM51.5005 27.65V8.86667H56.6338V27.65H51.5005ZM54.0671 5.83333C53.2375 5.83333 52.5505 5.56111 52.006 5.01667C51.4616 4.44633 51.1894 3.74633 51.1894 2.91667C51.1894 2.113 51.4616 1.42589 52.006 0.855556C52.5505 0.285223 53.2375 0 54.0671 0C54.9227 0 55.6097 0.285223 56.1282 0.855556C56.6727 1.42589 56.9449 2.113 56.9449 2.91667C56.9449 3.74633 56.6727 4.44633 56.1282 5.01667C55.6097 5.56111 54.9227 5.83333 54.0671 5.83333ZM72.8912 27.65L67.9524 20.0278L66.9024 19.25L59.5912 8.86667H65.619L70.169 15.75L71.1412 16.4889L78.8801 27.65H72.8912ZM59.2024 27.65L66.8635 16.9167L69.7801 20.3778L64.9579 27.65H59.2024ZM71.3357 19.2111L68.3412 15.7889L72.8135 8.86667H78.5301L71.3357 19.2111Z" fill="#121725"/>
</svg>
