<svg width="98" height="47" viewBox="0 0 98 47" fill="none" xmlns="http://www.w3.org/2000/svg">
<path d="M30.84 37V17.92H36.16V37H30.84ZM33.52 13.84C32.6133 13.84 31.9067 13.5867 31.4 13.08C30.8933 12.5467 30.64 11.8933 30.64 11.12C30.64 10.3467 30.8933 9.70666 31.4 9.2C31.9067 8.66667 32.6133 8.4 33.52 8.4C34.4 8.4 35.0933 8.66667 35.6 9.2C36.1333 9.70666 36.4 10.3467 36.4 11.12C36.4 11.8933 36.1467 12.5467 35.64 13.08C35.1333 13.5867 34.4267 13.84 33.52 13.84ZM52.4947 27.24L59.2547 37H53.1347L51.1347 34.04L49.1747 30.56L47.3747 34L45.4547 37H39.4147L46.0947 27.24L39.8147 17.92H45.7347L47.6947 20.92L49.4547 24.24L51.1347 20.92L52.9347 17.92H58.7347L52.4947 27.24ZM80.5225 27.32C80.5225 28.8933 80.2692 30.3067 79.7625 31.56C79.2558 32.8133 78.5492 33.88 77.6425 34.76C76.7625 35.6133 75.7225 36.28 74.5225 36.76C73.3225 37.2133 72.0292 37.44 70.6425 37.44C69.2558 37.44 67.9625 37.2267 66.7625 36.8C65.5892 36.3733 64.5625 35.7467 63.6825 34.92C62.8292 34.0933 62.1492 33.08 61.6425 31.88C61.1625 30.6533 60.9225 29.2667 60.9225 27.72C60.9225 26.0933 61.1758 24.6533 61.6825 23.4C62.1892 22.12 62.8825 21.0533 63.7625 20.2C64.6692 19.32 65.7225 18.6533 66.9225 18.2C68.1225 17.7467 69.4158 17.52 70.8025 17.52C72.1892 17.52 73.4692 17.7333 74.6425 18.16C75.8425 18.5867 76.8692 19.2133 77.7225 20.04C78.6025 20.84 79.2825 21.8533 79.7625 23.08C80.2692 24.3067 80.5225 25.72 80.5225 27.32ZM75.0425 27.52C75.0425 26.4267 74.9225 25.4933 74.6825 24.72C74.4425 23.9467 74.1225 23.32 73.7225 22.84C73.3225 22.36 72.8558 22.0133 72.3225 21.8C71.7892 21.56 71.2425 21.44 70.6825 21.44C70.1225 21.44 69.5892 21.5467 69.0825 21.76C68.5758 21.9467 68.1225 22.28 67.7225 22.76C67.3225 23.2133 67.0025 23.8267 66.7625 24.6C66.5225 25.3733 66.4025 26.3467 66.4025 27.52C66.4025 28.56 66.5225 29.4667 66.7625 30.24C67.0025 30.9867 67.3225 31.6 67.7225 32.08C68.1492 32.56 68.6158 32.92 69.1225 33.16C69.6558 33.4 70.2025 33.52 70.7625 33.52C71.3225 33.52 71.8558 33.4267 72.3625 33.24C72.8692 33.0267 73.3225 32.68 73.7225 32.2C74.1225 31.72 74.4425 31.1067 74.6825 30.36C74.9225 29.5867 75.0425 28.64 75.0425 27.52ZM84.3063 37V17.92H88.4263L89.0263 21.36C89.4796 20.3467 90.1996 19.4533 91.1863 18.68C92.1729 17.9067 93.4129 17.52 94.9063 17.52C95.5196 17.52 96.0663 17.5867 96.5463 17.72C97.0263 17.8533 97.4263 18.0133 97.7463 18.2L96.8663 22.4C96.5729 22.24 96.1996 22.1067 95.7463 22C95.2929 21.8667 94.7596 21.8 94.1463 21.8C92.8396 21.8 91.7463 22.24 90.8663 23.12C90.0129 23.9733 89.5863 25.3867 89.5863 27.36V37H84.3063Z" fill="white"/>
<circle cx="33.5" cy="11.5" r="3.5" fill="#FD5B38"/>
<g clip-path="url(#clip0_1442_23)">
<path d="M8.24257 27.5195V40.9999C7.45822 40.7851 6.77369 40.6992 6.18186 40.4152C2.35519 38.5849 0.284982 35.4421 0.111474 31.266C-0.0786714 26.6915 0.0140243 22.1002 0.0853288 17.516C0.180401 11.3307 4.12592 6.0903 9.76373 4.48192C16.8062 2.47502 24.0793 6.92074 25.6884 14.2181C26.9481 19.9334 24.2623 25.6725 19.252 27.9085C16.0385 29.3403 12.8061 29.0515 9.57596 27.9491C9.20518 27.8226 8.84865 27.6627 8.48262 27.5219C8.40299 27.5115 8.32239 27.5107 8.24257 27.5195ZM7.36552 17.5208C7.43683 20.7233 9.98002 23.248 13.0414 23.1669C16.1027 23.0857 18.6958 20.3033 18.615 17.0984C18.5389 14.1871 15.7866 11.6099 12.8037 11.6552C9.70193 11.7029 7.29184 14.3112 7.36552 17.5208Z" fill="#FD5B38"/>
</g>
<defs>
<clipPath id="clip0_1442_23">
<rect width="26" height="37" fill="white" transform="translate(0 4)"/>
</clipPath>
</defs>
</svg>
