<svg width="17" height="19" viewBox="0 0 17 19" fill="none" xmlns="http://www.w3.org/2000/svg">
<path id="Vector" d="M16.7288 12.9387L11.8192 9.93555L16.7286 6.93237C16.813 6.88061 16.8736 6.79747 16.8968 6.70106C16.9199 6.60464 16.9039 6.503 16.8523 6.41854L15.4096 4.06036C15.3022 3.88435 15.0718 3.82886 14.8958 3.93648L10.2093 6.80345V1.30924C10.2093 1.10296 10.0419 0.935547 9.83566 0.935547H7.07164C6.86537 0.935547 6.69795 1.10296 6.69795 1.30924V6.80345L2.01129 3.93667C1.83491 3.82904 1.60509 3.88435 1.49747 4.06055L0.0548281 6.41873C0.00325861 6.50319 -0.0128101 6.60483 0.0103588 6.70124C0.0335277 6.79765 0.0940658 6.8808 0.17852 6.93256L5.08809 9.93555L0.17852 12.9387C0.0940658 12.9903 0.0335277 13.0736 0.0103588 13.1699C-0.0128101 13.2665 0.00325861 13.3681 0.0548281 13.4525L1.49747 15.8105C1.60509 15.9866 1.83491 16.0422 2.01129 15.9346L6.69795 13.0676V18.5619C6.69795 18.7681 6.86537 18.9355 7.07164 18.9355H9.83566C10.0419 18.9355 10.2093 18.7681 10.2093 18.5619V13.0678L14.896 15.9344C15.072 16.042 15.3024 15.9866 15.4098 15.8107L16.8525 13.4525C16.904 13.3681 16.9201 13.2665 16.8969 13.17C16.874 13.0734 16.8132 12.9905 16.7288 12.9387Z" fill="#C8F31D"/>
</svg>
