<svg width="27" height="21" viewBox="0 0 27 21" fill="none" xmlns="http://www.w3.org/2000/svg">
<g id="Group">
<g id="Group_2">
<path id="Vector" d="M4.51269 13.7154C4.65332 13.8448 4.85999 13.8749 5.03024 13.7898L12.485 10.114L6.92476 14.0478C6.79431 14.1403 6.72075 14.293 6.73012 14.4528L6.9211 17.7127C6.95889 18.3577 7.08215 18.9035 7.27778 19.2907C7.61391 19.9566 8.08196 20.0312 8.33092 20.0167C8.63212 19.999 8.92145 19.8412 9.19027 19.5472L10.2259 18.4147L11.9046 19.4369C12.3239 19.6923 12.818 19.8108 13.3336 19.7806C14.3981 19.7182 15.463 19.0318 16.1141 17.9896L25.2039 3.42656C25.8303 2.42281 25.7266 1.81648 25.5297 1.48496C25.3995 1.26543 25.064 0.904011 24.2823 0.94981C24.0226 0.965023 23.7308 1.02431 23.4136 1.1254L2.79998 7.69913C1.88027 7.99226 1.28701 8.54899 1.1283 9.26615C0.97005 9.9838 1.27388 10.7383 1.98436 11.3912L4.51269 13.7154ZM2.0324 9.4659C2.11666 9.08406 2.48904 8.76972 3.0811 8.5811L23.6952 2.00684C24.2495 1.83066 24.6804 1.86567 24.7344 1.95754C24.7843 2.0413 24.7827 2.35386 24.419 2.9366L15.3297 17.4997C14.8351 18.2917 14.0496 18.8115 13.2799 18.8566C12.9482 18.876 12.6478 18.8056 12.3868 18.6465L10.3826 17.426C10.2994 17.3757 10.2064 17.3538 10.1149 17.3591C9.998 17.366 9.88414 17.4172 9.80053 17.5087L8.50785 18.9224C8.35797 19.086 8.27772 19.0925 8.27724 19.0931C8.18693 19.0706 7.90504 18.6745 7.84552 17.6585L7.66956 14.655L17.8045 7.48429C18.0013 7.34525 18.0583 7.07725 17.9345 6.86981C17.811 6.66098 17.546 6.58522 17.3325 6.6914L4.90571 12.8194L2.61061 10.7096C2.15345 10.2896 1.94772 9.84776 2.0324 9.4659Z" fill="white"/>
</g>
</g>
</svg>
