<svg width="50" height="50" viewBox="0 0 50 50" fill="none" xmlns="http://www.w3.org/2000/svg">
<path d="M3.12465 12.1168C3.22746 12.1174 3.32939 12.0977 3.42457 12.0589C3.51976 12.02 3.60633 11.9627 3.67933 11.8903L11.8903 3.67934C11.9631 3.6065 12.0209 3.52002 12.0603 3.42485C12.0997 3.32968 12.12 3.22767 12.12 3.12466C12.12 3.02164 12.0997 2.91964 12.0603 2.82446C12.0209 2.72929 11.9631 2.64281 11.8903 2.56997C11.8174 2.49713 11.731 2.43934 11.6358 2.39992C11.5406 2.3605 11.4386 2.34021 11.3356 2.34021C11.1275 2.34021 10.928 2.42286 10.7809 2.56997L2.56996 10.7809C2.49673 10.8535 2.43861 10.9399 2.39895 11.0351C2.35929 11.1303 2.33887 11.2325 2.33887 11.3356C2.33887 11.4387 2.35929 11.5408 2.39895 11.636C2.43861 11.7312 2.49673 11.8177 2.56996 11.8903C2.64296 11.9627 2.72953 12.02 2.82472 12.0589C2.91991 12.0977 3.02183 12.1174 3.12465 12.1168Z" fill="#BAE900"/>
<path d="M3.12465 21.0075C3.22746 21.0081 3.32939 20.9884 3.42457 20.9495C3.51976 20.9106 3.60633 20.8533 3.67933 20.7809L20.7809 3.67934C20.8537 3.6065 20.9115 3.52002 20.9509 3.42485C20.9904 3.32968 21.0107 3.22767 21.0107 3.12466C21.0107 3.02164 20.9904 2.91964 20.9509 2.82446C20.9115 2.72929 20.8537 2.64281 20.7809 2.56997C20.7081 2.49713 20.6216 2.43934 20.5264 2.39992C20.4312 2.3605 20.3292 2.34021 20.2262 2.34021C20.1232 2.34021 20.0212 2.3605 19.926 2.39992C19.8308 2.43934 19.7444 2.49713 19.6715 2.56997L2.56996 19.6715C2.49673 19.7442 2.43861 19.8306 2.39895 19.9258C2.35929 20.021 2.33887 20.1231 2.33887 20.2262C2.33887 20.3294 2.35929 20.4315 2.39895 20.5267C2.43861 20.6219 2.49673 20.7083 2.56996 20.7809C2.64296 20.8533 2.72953 20.9106 2.82472 20.9495C2.91991 20.9884 3.02183 21.0081 3.12465 21.0075Z" fill="#BAE900"/>
<path d="M3.12465 29.8825C3.32792 29.8921 3.52693 29.822 3.67933 29.6872L29.6871 3.67934C29.8343 3.53223 29.9169 3.3327 29.9169 3.12466C29.9169 2.91661 29.8343 2.71708 29.6871 2.56997C29.54 2.42286 29.3405 2.34021 29.1325 2.34021C28.9244 2.34021 28.7249 2.42286 28.5778 2.56997L2.56996 28.5465C2.49673 28.6192 2.43861 28.7056 2.39895 28.8008C2.35929 28.896 2.33887 28.9981 2.33887 29.1012C2.33887 29.2044 2.35929 29.3065 2.39895 29.4017C2.43861 29.4969 2.49673 29.5833 2.56996 29.6559C2.64296 29.7283 2.72953 29.7856 2.82472 29.8245C2.91991 29.8634 3.02183 29.8831 3.12465 29.8825Z" fill="#BAE900"/>
<path d="M3.12465 38.7731C3.22746 38.7737 3.32939 38.754 3.42457 38.7151C3.51976 38.6762 3.60633 38.6189 3.67933 38.5465L38.5465 3.67934C38.6194 3.6065 38.6771 3.52002 38.7166 3.42485C38.756 3.32968 38.7763 3.22767 38.7763 3.12466C38.7763 3.02164 38.756 2.91964 38.7166 2.82446C38.6771 2.72929 38.6194 2.64281 38.5465 2.56997C38.4737 2.49713 38.3872 2.43934 38.292 2.39992C38.1969 2.3605 38.0948 2.34021 37.9918 2.34021C37.8888 2.34021 37.7868 2.3605 37.6916 2.39992C37.5965 2.43934 37.51 2.49713 37.4371 2.56997L2.56996 37.4372C2.49673 37.5098 2.43861 37.5962 2.39895 37.6914C2.35929 37.7866 2.33887 37.8887 2.33887 37.9918C2.33887 38.095 2.35929 38.1971 2.39895 38.2923C2.43861 38.3875 2.49673 38.4739 2.56996 38.5465C2.64296 38.6189 2.72953 38.6762 2.82472 38.7151C2.91991 38.754 3.02183 38.7737 3.12465 38.7731Z" fill="#BAE900"/>
<path d="M47.4293 2.56996C47.3567 2.49673 47.2703 2.43861 47.1751 2.39895C47.0799 2.35929 46.9778 2.33887 46.8746 2.33887C46.7715 2.33887 46.6694 2.35929 46.5742 2.39895C46.479 2.43861 46.3926 2.49673 46.32 2.56996L2.56996 46.32C2.49673 46.3926 2.43861 46.479 2.39895 46.5742C2.35929 46.6694 2.33887 46.7715 2.33887 46.8746C2.33887 46.9778 2.35929 47.0799 2.39895 47.1751C2.43861 47.2703 2.49673 47.3567 2.56996 47.4293C2.64259 47.5026 2.72899 47.5607 2.8242 47.6003C2.9194 47.64 3.02151 47.6604 3.12465 47.6604C3.22778 47.6604 3.3299 47.64 3.4251 47.6003C3.5203 47.5607 3.60671 47.5026 3.67933 47.4293L47.4293 3.67933C47.5026 3.60671 47.5607 3.5203 47.6003 3.4251C47.64 3.3299 47.6604 3.22778 47.6604 3.12465C47.6604 3.02151 47.64 2.9194 47.6003 2.8242C47.5607 2.72899 47.5026 2.64259 47.4293 2.56996Z" fill="#BAE900"/>
<path d="M46.32 11.4528L11.4528 46.32C11.3795 46.3926 11.3214 46.479 11.2818 46.5742C11.2421 46.6694 11.2217 46.7715 11.2217 46.8747C11.2217 46.9778 11.2421 47.0799 11.2818 47.1751C11.3214 47.2703 11.3795 47.3567 11.4528 47.4293C11.5254 47.5026 11.6118 47.5607 11.707 47.6003C11.8022 47.64 11.9043 47.6604 12.0075 47.6604C12.1106 47.6604 12.2127 47.64 12.3079 47.6003C12.4031 47.5607 12.4895 47.5026 12.5621 47.4293L47.4293 12.5622C47.5764 12.415 47.6591 12.2155 47.6591 12.0075C47.6591 11.7994 47.5764 11.5999 47.4293 11.4528C47.2822 11.3057 47.0827 11.223 46.8746 11.223C46.6666 11.223 46.4671 11.3057 46.32 11.4528Z" fill="#BAE900"/>
<path d="M46.32 20.3122L20.3121 46.32C20.2389 46.3926 20.1808 46.479 20.1411 46.5742C20.1015 46.6694 20.0811 46.7715 20.0811 46.8747C20.0811 46.9778 20.1015 47.0799 20.1411 47.1751C20.1808 47.2703 20.2389 47.3567 20.3121 47.4294C20.3848 47.5026 20.4712 47.5607 20.5664 47.6004C20.6616 47.64 20.7637 47.6605 20.8668 47.6605C20.97 47.6605 21.0721 47.64 21.1673 47.6004C21.2625 47.5607 21.3489 47.5026 21.4215 47.4294L47.4293 21.4528C47.5806 21.3057 47.6672 21.1045 47.6701 20.8935C47.6731 20.6826 47.5921 20.4791 47.445 20.3278C47.2978 20.1765 47.0967 20.0899 46.8857 20.087C46.6747 20.0841 46.4712 20.1651 46.32 20.3122Z" fill="#BAE900"/>
<path d="M46.32 29.2184L29.2184 46.32C29.1452 46.3926 29.0871 46.479 29.0474 46.5742C29.0077 46.6694 28.9873 46.7715 28.9873 46.8747C28.9873 46.9778 29.0077 47.0799 29.0474 47.1751C29.0871 47.2703 29.1452 47.3567 29.2184 47.4293C29.291 47.5026 29.3774 47.5607 29.4726 47.6004C29.5678 47.64 29.67 47.6604 29.7731 47.6604C29.8762 47.6604 29.9783 47.64 30.0735 47.6004C30.1687 47.5607 30.2551 47.5026 30.3278 47.4293L47.4293 30.3278C47.5764 30.1807 47.6591 29.9811 47.6591 29.7731C47.6591 29.565 47.5764 29.3655 47.4293 29.2184C47.2822 29.0713 47.0827 28.9886 46.8746 28.9886C46.6666 28.9886 46.4671 29.0713 46.32 29.2184Z" fill="#BAE900"/>
<path d="M46.32 38.109L38.109 46.32C38.0358 46.3926 37.9777 46.479 37.938 46.5742C37.8983 46.6694 37.8779 46.7715 37.8779 46.8747C37.8779 46.9778 37.8983 47.0799 37.938 47.1751C37.9777 47.2703 38.0358 47.3567 38.109 47.4293C38.1816 47.5026 38.2681 47.5607 38.3633 47.6004C38.4585 47.64 38.5606 47.6604 38.6637 47.6604C38.7668 47.6604 38.869 47.64 38.9642 47.6004C39.0594 47.5607 39.1458 47.5026 39.2184 47.4293L47.4293 39.2184C47.5764 39.0713 47.6591 38.8718 47.6591 38.6637C47.6591 38.4557 47.5764 38.2561 47.4293 38.109C47.2822 37.9619 47.0827 37.8793 46.8746 37.8793C46.6666 37.8793 46.4671 37.9619 46.32 38.109Z" fill="#BAE900"/>
</svg>
