<svg width="60" height="60" viewBox="0 0 60 60" fill="none" xmlns="http://www.w3.org/2000/svg">
<g id="abstract-shape (3) 1">
<path id="Vector" d="M37.232 10.9814C16.8002 11.8275 16.8055 40.9421 37.2321 41.7853C37.4808 41.7853 37.7192 41.6865 37.895 41.5107C38.0708 41.3349 38.1696 41.0964 38.1696 40.8477C38.1695 40.5991 38.0708 40.3607 37.8949 40.1849C37.7191 40.009 37.4806 39.9103 37.232 39.9103C33.6457 39.9062 30.2076 38.4797 27.6717 35.9438C25.1359 33.4078 23.7095 29.9696 23.7055 26.3834C24.4486 8.43817 50.0184 8.44316 50.759 26.3835C50.7623 26.6299 50.8625 26.8652 51.038 27.0383C51.2135 27.2114 51.4501 27.3084 51.6965 27.3084C51.943 27.3084 52.1796 27.2113 52.355 27.0382C52.5305 26.865 52.6307 26.6298 52.634 26.3833C52.6293 22.2999 51.0051 18.3851 48.1176 15.4977C45.2302 12.6103 41.3154 10.9861 37.232 10.9814Z" fill="#BAE900"/>
<path id="Vector_2" d="M37.2319 47.1432C9.68981 46.0012 9.70351 6.75996 37.232 5.625C37.3551 5.62499 37.477 5.60073 37.5908 5.55361C37.7045 5.50649 37.8079 5.43742 37.8949 5.35036C37.982 5.2633 38.051 5.15994 38.0981 5.0462C38.1452 4.93245 38.1695 4.81054 38.1694 4.68742C38.1694 4.56431 38.1452 4.4424 38.098 4.32867C38.0509 4.21493 37.9819 4.11158 37.8948 4.02453C37.8077 3.93749 37.7044 3.86844 37.5906 3.82133C37.4769 3.77423 37.355 3.74999 37.2319 3.75C31.2314 3.75386 25.4781 6.14023 21.2365 10.3845C16.995 14.6288 14.6123 20.3837 14.6123 26.3841C14.6123 32.3845 16.995 38.1394 21.2365 42.3837C25.4781 46.628 31.2314 49.0144 37.2319 49.0182C37.4775 49.0137 37.7116 48.913 37.8837 48.7376C38.0558 48.5623 38.1522 48.3265 38.1523 48.0808C38.1523 47.8351 38.0558 47.5992 37.8837 47.4239C37.7116 47.2485 37.4775 47.1478 37.2319 47.1432Z" fill="#BAE900"/>
<path id="Vector_3" d="M37.2321 54.3753C29.8109 54.367 22.6961 51.4152 17.4486 46.1676C12.2011 40.92 9.24944 33.8052 9.24121 26.384C9.23739 26.1379 9.13694 25.9031 8.96153 25.7304C8.78613 25.5577 8.54984 25.4609 8.30369 25.4609C8.05753 25.4609 7.82125 25.5577 7.64586 25.7305C7.47046 25.9032 7.37002 26.1379 7.36621 26.384C7.37509 34.3023 10.5245 41.8937 16.1235 47.4927C21.7225 53.0918 29.3139 56.2413 37.2321 56.2503C37.4776 56.2455 37.7114 56.1447 37.8833 55.9694C38.0552 55.7941 38.1515 55.5584 38.1515 55.3128C38.1515 55.0673 38.0552 54.8316 37.8833 54.6563C37.7114 54.481 37.4776 54.3801 37.2321 54.3753Z" fill="#BAE900"/>
<path id="Vector_4" d="M37.2318 18.2144C35.0659 18.2169 32.9895 19.0783 31.458 20.6098C29.9265 22.1413 29.065 24.2178 29.0625 26.3836C29.491 37.2151 44.9752 37.2111 45.4019 26.3835C45.3994 24.2175 44.5377 22.141 43.006 20.6095C41.4744 19.078 39.3977 18.2167 37.2318 18.2144ZM37.2318 32.6788C35.5629 32.6767 33.963 32.0128 32.783 30.8326C31.603 29.6525 30.9393 28.0525 30.9375 26.3836C31.2329 18.0527 43.2324 18.0557 43.5269 26.3837C43.5249 28.0527 42.861 29.6527 41.6808 30.8328C40.5007 32.0129 38.9007 32.6768 37.2318 32.6788Z" fill="#BAE900"/>
</g>
</svg>
