<svg width="60" height="60" viewBox="0 0 60 60" fill="none" xmlns="http://www.w3.org/2000/svg">
<g id="rocket 1">
<path id="Vector" d="M55.725 6.40316C55.5094 5.16566 54.4782 4.20004 53.2313 4.05941C50.7844 3.76879 48.2719 3.81566 45.7782 4.15316C37.0688 5.29691 29.0157 10.3125 23.8876 17.5407L19.7438 16.1907C18.1594 15.675 16.3876 16.2188 15.3282 17.5313L10.9313 22.9969C9.27193 24.9469 10.0032 28.2094 12.3844 29.1844L18.4688 31.8469C16.8376 33.3281 15.6188 35.2125 14.8407 36.6375C14.4751 37.3125 14.5313 38.1188 14.9813 38.7375C15.5438 39.5344 16.5376 39.6375 17.4188 39.3844C16.8001 40.8375 16.2376 42.3188 15.7407 43.8563C15.5063 44.5875 15.7032 45.3656 16.2563 45.8813C16.8094 46.3969 17.5969 46.5469 18.3094 46.2656C19.8188 45.675 21.2626 45.0188 22.6688 44.3156C22.2938 45.5906 23.1188 47.0531 24.5251 47.0344C24.8813 47.0344 25.2469 46.9313 25.5657 46.725C26.9438 45.8625 28.7438 44.5219 30.1125 42.8063L33.15 48.7219C34.2657 51.0375 37.5657 51.5719 39.4125 49.7906L44.5969 45.0656C45.8438 43.9313 46.2657 42.1219 45.6563 40.575L44.0532 36.5156C52.9313 29.4375 57.7594 17.5032 55.6969 6.39379L55.725 6.40316ZM53.8782 6.73129C54.4875 10.1813 54.4313 13.7438 53.7657 17.1844C49.9219 13.9407 46.0688 10.3125 42.5907 6.67504C45.5344 5.91566 48.5907 5.60629 51.6282 5.79379C52.425 5.90629 53.6813 5.68129 53.8875 6.73129H53.8782ZM11.9532 26.0625C11.7938 25.3969 11.9532 24.7125 12.3844 24.1688L16.7813 18.7032C17.3532 17.9907 18.3001 17.7 19.1532 17.9719L22.7719 19.1438C20.7282 22.4156 19.2563 26.025 18.4594 29.7938L13.1251 27.4594C12.5344 27.1969 12.1032 26.6906 11.9532 26.0625ZM36.1969 39.225C34.5469 39.9844 32.8219 40.5844 31.0594 41.0156L20.1938 30.7969C20.5594 28.7719 21.1594 26.7938 21.9282 24.8906L36.8532 38.925C36.6375 39.0281 36.4219 39.1219 36.1969 39.225ZM24.5813 45.1406L24.4688 45.0656C24.6001 43.9969 25.0688 41.325 23.2126 41.9438C21.3938 42.8906 19.5751 43.7625 17.6251 44.5219L17.5313 44.4281C18.1688 42.45 18.9282 40.5656 19.7626 38.7C20.2688 36.8063 17.6344 37.4344 16.5657 37.6406L16.4813 37.5375C17.2126 36.1969 18.3657 34.4063 19.8751 33.0938L28.8 41.4844C27.5813 43.0781 25.875 44.3438 24.5813 45.1594V45.1406ZM43.35 43.6781L38.1657 48.4031C37.1813 49.35 35.4282 49.0969 34.8282 47.8594L32.1657 42.675C34.4719 42.0281 36.7219 41.1563 38.8313 40.0219C40.1063 39.3281 41.3438 38.5594 42.5344 37.7156L43.9313 41.25C44.2594 42.075 44.025 43.05 43.35 43.6688V43.6781ZM45.9657 32.2219C43.8469 34.4906 41.3344 36.4781 38.6063 38.0063L22.7344 23.0906C26.2594 15.75 32.9438 9.84378 40.5844 7.29379C44.4844 11.4469 48.8907 15.5813 53.2688 19.2188C51.975 24.0188 49.4625 28.5094 45.9563 32.2313L45.9657 32.2219Z" fill="#BAE900"/>
<path id="Vector_2" d="M38.8033 14.6813C29.5689 15.2438 29.9908 28.6688 39.2346 28.6594C48.4689 28.0969 48.0471 14.6719 38.8033 14.6813ZM42.7502 25.1719C38.0064 29.9719 30.7877 23.1938 35.2971 18.1594C40.0314 13.3594 47.2502 20.1282 42.7502 25.1719Z" fill="#BAE900"/>
<path id="Vector_3" d="M21.2718 49.3969L16.4343 54.5438C15.6 55.4344 16.9593 56.7188 17.8031 55.8281L22.6406 50.6813C23.475 49.7906 22.1156 48.5063 21.2718 49.3969Z" fill="#BAE900"/>
<path id="Vector_4" d="M10.922 41.1563C10.547 40.8 9.95637 40.8188 9.60011 41.1938L4.06886 47.0719C3.71261 47.4469 3.73136 48.0469 4.10636 48.3938C4.48136 48.75 5.07199 48.7313 5.42824 48.3563L10.9595 42.4781C11.3157 42.1031 11.297 41.5031 10.922 41.1563Z" fill="#BAE900"/>
<path id="Vector_5" d="M11.9717 48.975L7.13421 54.1219C6.56234 54.6844 7.03109 55.725 7.81859 55.7063C8.07171 55.7063 8.31546 55.6032 8.50296 55.4157L13.3405 50.2688C14.1748 49.3688 12.8248 48.0938 11.9717 48.9844V48.975Z" fill="#BAE900"/>
<path id="Vector_6" d="M22.7907 30.6844L25.5188 33.2532C26.4094 34.0875 27.6938 32.7375 26.8032 31.8844L24.0751 29.3157C23.1844 28.4813 21.9001 29.8313 22.7907 30.6844Z" fill="#BAE900"/>
<path id="Vector_7" d="M28.9314 36.4688C29.822 37.3032 31.1064 35.9532 30.2158 35.1L28.847 33.8157C27.9564 32.9813 26.672 34.3313 27.5627 35.1844L28.9314 36.4688Z" fill="#BAE900"/>
<path id="Vector_8" d="M30.7593 38.0813C30.7781 38.1375 30.8062 38.1844 30.8437 38.2407L30.9562 38.3813C31.3125 38.7469 31.9312 38.7469 32.2874 38.3813C32.3718 38.2875 32.4468 38.1938 32.4843 38.0813C33.0187 36.3844 30.2156 36.3938 30.7593 38.0813Z" fill="#BAE900"/>
</g>
</svg>
